<?xml version="1.0" encoding="UTF-8" standalone="no"?>
<!-- Created with Inkscape (http://www.inkscape.org/) -->

<svg
   version="1.1"
   id="svg1"
   width="65.689636"
   height="65.689636"
   viewBox="0 0 65.689635 65.689635"
   sodipodi:docname="1159066_2774.eps"
   xml:space="preserve"
   xmlns:inkscape="http://www.inkscape.org/namespaces/inkscape"
   xmlns:sodipodi="http://sodipodi.sourceforge.net/DTD/sodipodi-0.dtd"
   xmlns="http://www.w3.org/2000/svg"
   xmlns:svg="http://www.w3.org/2000/svg"><defs
     id="defs1" /><sodipodi:namedview
     id="namedview1"
     pagecolor="#505050"
     bordercolor="#eeeeee"
     borderopacity="1"
     inkscape:showpageshadow="0"
     inkscape:pageopacity="0"
     inkscape:pagecheckerboard="0"
     inkscape:deskcolor="#505050"><inkscape:page
       x="0"
       y="0"
       width="65.689636"
       height="65.689636"
       id="page2"
       margin="0"
       bleed="0" /></sodipodi:namedview><g
     id="g1"
     inkscape:groupmode="layer"
     inkscape:label="1"
     transform="translate(-736.47609,-91.296007)"><g
       id="g911"><path
         id="path395"
         d="m 766.93905,126.52267 c -6.96933,-6.96933 -18.268,-6.96933 -25.236,0 -6.296,6.29467 -6.904,16.12267 -1.82533,23.1 l -1.54934,1.54933 3.96134,3.96134 1.548,-1.54934 c 6.98,5.07867 16.80666,4.47067 23.10133,-1.82533 6.968,-6.968 6.968,-18.26667 0,-25.236"
         style="fill:#2d1513;fill-opacity:1;fill-rule:evenodd;stroke:none;stroke-width:0.133333" /><path
         id="path396"
         d="m 766.19905,127.26267 c -6.56,-6.56133 -17.19733,-6.56133 -23.756,0 -6.56,6.56 -6.56,17.196 0,23.75733 6.55867,6.56 17.196,6.56 23.756,0 6.56133,-6.56133 6.56133,-17.19733 0,-23.75733"
         style="fill:#efa245;fill-opacity:1;fill-rule:evenodd;stroke:none;stroke-width:0.133333" /><path
         id="path397"
         d="m 758.95372,138.46934 31.57733,-31.57734 5.55067,7.38 1.81333,-1.812 -6.53467,-6.39866 1.47867,-1.47734 6.39733,6.53334 1.81334,-1.812 -7.38134,-5.552 1.208,-1.20667 1.98934,-0.136 5.3,-5.3 -5.81467,-5.814666 -5.29867,5.3 -0.20666,2.057333 -1.13734,1.138667 -5.552,-7.38 -1.81333,1.813333 6.53467,6.397333 -1.47867,1.47867 -6.39733,-6.53467 -1.812,1.813334 7.37866,5.550666 -31.576,31.57733 3.96134,3.96134"
         style="fill:#2d1513;fill-opacity:1;fill-rule:evenodd;stroke:none;stroke-width:0.133333" /><path
         id="path398"
         d="m 759.83238,135.232 36.88267,-36.882663 -0.33067,-0.330667 -36.88266,36.88267 0.33066,0.33066"
         style="fill:#f6c588;fill-opacity:1;fill-rule:evenodd;stroke:none;stroke-width:0.133333" /><path
         id="path399"
         d="m 758.60572,133.804 36.88266,-36.88133 -0.33066,-0.330666 -36.88134,36.882666 0.32934,0.32933"
         style="fill:#f6c588;fill-opacity:1;fill-rule:evenodd;stroke:none;stroke-width:0.133333" /><path
         id="path400"
         d="m 798.05105,95.41067 c -1.052,-1.052 -2.69067,-1.121333 -3.66,-0.152 -0.968,0.968 -0.89867,2.605334 0.15333,3.658667 1.052,1.052 2.69067,1.121333 3.66,0.152 0.96667,-0.968 0.9,-2.606667 -0.15333,-3.658667"
         style="fill:#f6c588;fill-opacity:1;fill-rule:evenodd;stroke:none;stroke-width:0.133333" /><path
         id="path401"
         d="m 752.66172,147.27467 1.02666,-1.02667 -6.47333,-6.47466 -1.028,1.02666 6.47467,6.47467"
         style="fill:#ea8f2b;fill-opacity:1;fill-rule:evenodd;stroke:none;stroke-width:0.133333" /><path
         id="path402"
         d="m 765.49105,141.616 c -0.99733,-0.99733 -2.616,-0.99733 -3.61333,0 -0.99734,0.99867 -0.99734,2.616 0,3.61334 0.99733,0.99866 2.616,0.99866 3.61333,0 0.99733,-0.99734 0.99733,-2.61467 0,-3.61334"
         style="fill:#2d1513;fill-opacity:1;fill-rule:evenodd;stroke:none;stroke-width:0.133333" /><path
         id="path403"
         d="m 751.84438,127.972 c -0.99733,-0.99866 -2.61466,-0.99866 -3.61333,0 -0.99733,0.99734 -0.99733,2.61467 0,3.612 0.99867,0.99867 2.616,0.99867 3.61333,0 0.99867,-0.99733 0.99867,-2.61466 0,-3.612"
         style="fill:#2d1513;fill-opacity:1;fill-rule:evenodd;stroke:none;stroke-width:0.133333" /></g></g></svg>
