<?xml version="1.0" encoding="UTF-8" standalone="no"?>
<!-- Created with Inkscape (http://www.inkscape.org/) -->

<svg
   version="1.1"
   id="svg1"
   width="285.56348"
   height="320.31104"
   viewBox="0 0 285.56347 320.31103"
   sodipodi:docname="1159066_2774.eps"
   xml:space="preserve"
   xmlns:inkscape="http://www.inkscape.org/namespaces/inkscape"
   xmlns:sodipodi="http://sodipodi.sourceforge.net/DTD/sodipodi-0.dtd"
   xmlns="http://www.w3.org/2000/svg"
   xmlns:svg="http://www.w3.org/2000/svg"><defs
     id="defs1" /><sodipodi:namedview
     id="namedview1"
     pagecolor="#505050"
     bordercolor="#eeeeee"
     borderopacity="1"
     inkscape:showpageshadow="0"
     inkscape:pageopacity="0"
     inkscape:pagecheckerboard="0"
     inkscape:deskcolor="#505050"><inkscape:page
       x="0"
       y="0"
       width="285.56348"
       height="320.31104"
       id="page2"
       margin="0"
       bleed="0" /></sodipodi:namedview><g
     id="g1-6"
     inkscape:groupmode="layer"
     inkscape:label="1"
     transform="translate(2730.1155,-801.89442)"><g
       id="group-R5"
       transform="matrix(0.13067092,0,0,0.13067092,-2772.1302,777.25333)"><path
         id="path2-9"
         d="m 16977,9720.2 c 432.1,231.2 764.8,488.1 976.4,762.8 0.4,0.4 0.7,0.8 1,1.2 4.1,5.4 8.2,10.7 12.2,16.1 0.4,0.5 0.8,1.1 1.2,1.7 4.1,5.4 8.1,10.8 12.1,16.3 0.2,0.3 0.5,0.6 0.7,1 17.1,23.5 33.3,47.1 48.6,70.8 0.2,0.3 0.4,0.6 0.6,0.9 3.4,5.4 6.8,10.8 10.2,16.1 0.8,1.3 1.5,2.5 2.3,3.7 2.7,4.5 5.5,8.9 8.2,13.4 1,1.7 2,3.3 2.9,4.9 2.5,4.1 5,8.3 7.4,12.4 1.1,1.8 2.1,3.6 3.2,5.4 2.3,4 4.6,8 6.8,12 1.1,1.8 2.1,3.7 3.1,5.5 2.3,4 4.5,8.1 6.8,12.1 0.9,1.9 1.9,3.7 2.9,5.5 2.4,4.4 4.7,8.8 7,13.2 0.8,1.4 1.5,2.8 2.2,4.1 3.1,5.9 6,11.7 9,17.5 0.4,0.9 0.8,1.7 1.3,2.6 2.4,4.9 4.8,9.7 7.1,14.6 1.2,2.4 2.3,4.7 3.4,7.1 1.6,3.4 3.2,6.8 4.8,10.3 1.2,2.5 2.3,5 3.5,7.5 1.5,3.4 3,6.7 4.5,10 1.1,2.6 2.3,5.2 3.4,7.8 1.3,3.2 2.7,6.3 4,9.4 1.2,2.9 2.4,5.7 3.6,8.6 1.2,2.9 2.4,5.7 3.5,8.6 1.3,3.1 2.5,6.1 3.7,9.1 1.1,2.7 2.1,5.4 3.2,8.1 1.2,3.2 2.4,6.3 3.6,9.5 1,2.6 2,5.3 2.9,7.9 1.2,3.2 2.4,6.4 3.5,9.6 0.9,2.3 1.6,4.6 2.5,6.9 4.4,12.8 8.6,25.6 12.6,38.4 0.6,2 1.3,4.1 1.9,6.1 1.1,3.7 2.2,7.4 3.2,11 0.6,2.2 1.3,4.3 1.9,6.5 1,3.6 2,7.3 3,11 0.6,2.1 1.2,4.3 1.8,6.5 1,3.7 1.9,7.5 2.9,11.3 0.5,1.9 1,3.9 1.4,5.8 1,4 2,7.9 2.9,11.9 0.4,1.7 0.8,3.5 1.2,5.2 1,4.2 1.9,8.4 2.8,12.6 0.3,1.3 0.5,2.6 0.8,3.8 1,4.6 1.9,9.2 2.8,13.8 0.1,0.5 0.2,1.1 0.3,1.6 4.2,21.4 7.6,42.9 10.3,64.4 0.1,0.7 0.2,1.5 0.3,2.2 0.6,4.8 1.1,9.6 1.7,14.3 0.1,1.1 0.2,2.2 0.3,3.3 0.5,4.7 1,9.4 1.4,14.1 0.1,1.1 0.2,2.3 0.3,3.4 0.4,4.7 0.8,9.4 1.1,14.1 l 0.3,3.1 c 0.3,4.9 0.6,9.9 0.9,14.8 0,0.5 0,1 0.1,1.5 0.8,16.7 1.3,33.5 1.3,50.3 247.8,609.5 583.9,1654.3 583.9,2986.8 0,22.9 0,45.9 -0.4,68.8 0,1.7 0,3.4 0,5.1 -0.9,103 -3.9,204.1 -8.7,303.5 -0.7,16.3 -1.5,32.5 -2.4,48.7 -0.8,14.8 -1.7,29.5 -2.5,44.2 -24.5,411.2 -79.3,790.1 -149.9,1131.9 -2.6,12.7 -5.3,25.5 -7.9,38.1 -117.8,556.6 -276.6,1012.5 -412.1,1346.1 v 0 c 0,0 0,0 0,0 0,1462 -3325.9,2647.1 -7428.6,2647.1 -4102.75,0 -7428.66,-1185.1 -7428.66,-2647.1 0,0 0,0 0,0 -239.51,-623.2 -530.22,-1602.3 -553.42,-2829.2 -26.24,-1388.6 301.63,-2488.4 553.42,-3144.1 h 0.01 c 0,-327.8 167.28,-641.7 473.05,-931.5 L 2473.13,4844.3 c -40.23,-78.3 -61.65,-160.5 -61.65,-245.2 0,-535.4 855.47,-969.5 1910.75,-969.5 150.87,0 297.64,8.9 438.43,25.7 l -233.03,-926.6 c -43.31,-84.3 -66.39,-172.7 -66.39,-263.9 0,-576.4 920.99,-1043.7 2057.08,-1043.7 1136.1,0 2057.08,467.3 2057.08,1043.7 l 472.82,6146.5 c 558.43,-47.7 1141.38,-73.1 1740.98,-73.1 276.1,0 548.7,5.4 817,15.9 l 304.2,-3955 c 0,-535.4 855.5,-969.5 1910.7,-969.5 274.2,0 534.9,29.4 770.5,82.1 l 96,-1246.9 c 0,-576.4 921,-1043.7 2057,-1043.7 1136.1,0 2057.1,467.3 2057.1,1043.7 0,91.2 -23,179.6 -66.4,263.9 L 16977,9720.2"
         style="fill:#b76932;fill-opacity:1;fill-rule:nonzero;stroke:none"
         transform="matrix(0.13333333,0,0,-0.13333333,0,2829.3333)" /><path
         id="path3-3"
         d="m 16977,9720.2 -0.1,-0.1 0.1,0.2 c 432.1,231.2 764.8,488 976.4,762.7 0.4,0.4 0.7,0.8 1,1.2 4.1,5.4 8.2,10.7 12.2,16.1 0.4,0.5 0.8,1.1 1.2,1.7 4.1,5.4 8.1,10.8 12.1,16.3 0.2,0.3 0.5,0.6 0.7,1 17.1,23.5 33.3,47.1 48.6,70.8 0.2,0.3 0.4,0.6 0.6,0.9 3.4,5.4 6.8,10.8 10.2,16.1 0.8,1.3 1.5,2.5 2.3,3.7 2.7,4.5 5.5,8.9 8.2,13.4 1,1.7 2,3.3 2.9,4.9 2.5,4.1 5,8.3 7.4,12.4 1.1,1.8 2.1,3.6 3.2,5.4 2.3,4 4.6,8 6.8,12 1.1,1.8 2.1,3.7 3.1,5.5 2.3,4 4.5,8.1 6.8,12.1 0.9,1.9 1.9,3.7 2.9,5.5 2.4,4.4 4.7,8.8 7,13.2 0.8,1.4 1.5,2.8 2.2,4.1 3.1,5.9 6,11.7 9,17.5 0.4,0.9 0.8,1.7 1.3,2.6 2.4,4.9 4.8,9.7 7.1,14.6 1.2,2.4 2.3,4.7 3.4,7.1 1.6,3.4 3.2,6.8 4.8,10.3 1.2,2.5 2.3,5 3.5,7.5 1.5,3.4 3,6.7 4.5,10 1.1,2.6 2.3,5.2 3.4,7.8 1.3,3.2 2.7,6.3 4,9.4 1.2,2.9 2.4,5.7 3.6,8.6 1.2,2.9 2.4,5.7 3.5,8.6 1.3,3.1 2.5,6.1 3.7,9.1 1.1,2.7 2.1,5.4 3.2,8.1 1.2,3.2 2.4,6.3 3.6,9.5 1,2.6 2,5.3 2.9,7.9 1.2,3.2 2.4,6.4 3.5,9.6 0.9,2.3 1.6,4.6 2.5,6.9 4.4,12.8 8.6,25.6 12.6,38.4 0.6,2 1.3,4.1 1.9,6.1 1.1,3.7 2.2,7.4 3.2,11 0.6,2.2 1.3,4.3 1.9,6.5 1,3.6 2,7.3 3,11 0.6,2.1 1.2,4.3 1.8,6.5 1,3.7 1.9,7.5 2.9,11.3 0.5,1.9 1,3.9 1.4,5.8 1,4 2,7.9 2.9,11.9 0.4,1.7 0.8,3.5 1.2,5.2 1,4.2 1.9,8.4 2.8,12.6 0.3,1.3 0.5,2.6 0.8,3.8 1,4.6 1.9,9.2 2.8,13.8 0.1,0.5 0.2,1.1 0.3,1.6 4.2,21.4 7.6,42.9 10.3,64.4 0.1,0.7 0.2,1.5 0.3,2.2 0.6,4.8 1.1,9.6 1.7,14.3 0.1,1.1 0.2,2.2 0.3,3.3 0.5,4.7 1,9.4 1.4,14.1 0.1,1.1 0.2,2.3 0.3,3.4 0.4,4.7 0.8,9.4 1.1,14.1 l 0.3,3.1 c 0.3,4.9 0.6,9.9 0.9,14.8 0,0.5 0,1 0.1,1.5 0.8,16.7 1.3,33.5 1.3,50.3 247.8,609.5 583.9,1654.3 583.9,2986.8 0,22.9 0,45.9 -0.4,68.8 0,1.8 0,3.5 0,5.2 -1,102.9 -3.9,204.1 -8.7,303.4 -0.7,16.3 -1.5,32.5 -2.4,48.7 -0.8,14.8 -1.7,29.5 -2.5,44.2 -24.5,411.2 -79.3,790.1 -149.9,1131.9 -2.6,12.7 -5.3,25.5 -7.9,38.1 -117.8,556.5 -276.6,1012.4 -412.1,1346 v 0 c -0.1,-687.3 -735.2,-1313.3 -1940.4,-1783.9 75.1,-484.9 123.9,-1014 129.2,-1581.5 0.5,-34.7 0.5,-69 0.5,-103.3 0,-1202.5 -197.2,-2236.4 -429.8,-3045.6 -125.3,-435.9 -260.9,-806.5 -381.4,-1103.1 0,-132.1 -19.6,-262.9 -58.1,-391.4 v -0.1 c -280.9,-83.3 -579.4,-159.4 -893.2,-227.4 -145.7,-31.6 -294.8,-61.4 -446.9,-89.5 -791.4,-145.9 -1665.9,-242.6 -2591.5,-278.6 l 304.2,-3955 c 0,-535.4 855.5,-969.5 1910.7,-969.5 274.2,0 534.9,29.4 770.5,82.1 l 96,-1246.9 c 0,-576.4 921,-1043.7 2057,-1043.7 1136.1,0 2057.1,467.3 2057.1,1043.7 0,91.2 -23,179.6 -66.4,263.9 L 16977,9720.2"
         style="fill:#9c5a2a;fill-opacity:1;fill-rule:nonzero;stroke:none"
         transform="matrix(0.13333333,0,0,-0.13333333,0,2829.3333)" /><path
         id="path4-7"
         d="M 6135.48,9121.9 C 5108.41,9416.4 4305.84,9806.3 3833.6,10253.8 L 2473.13,4844.3 c -40.23,-78.3 -61.65,-160.5 -61.65,-245.2 0,-535.4 855.47,-969.5 1910.75,-969.5 150.87,0 297.64,8.9 438.43,25.7 l -233.03,-926.6 c -43.31,-84.3 -66.39,-172.7 -66.39,-263.9 0,-576.4 920.99,-1043.7 2057.08,-1043.7 1136.1,0 2057.08,467.3 2057.08,1043.7 l 472.82,6146.5 c -900.33,77.1 -1736.85,212.5 -2476.24,394.5 -149.57,36.9 -295.16,75.6 -436.5,116.1"
         style="fill:#864c23;fill-opacity:1;fill-rule:nonzero;stroke:none"
         transform="matrix(0.13333333,0,0,-0.13333333,0,2829.3333)" /><path
         id="path5-4"
         d="M 18735.3,2728.7 16977,9720.2 c -603.4,-323 -1400.6,-596 -2332.4,-798 -145.7,-31.6 -294.8,-61.4 -446.9,-89.5 -791.4,-145.9 -1665.9,-242.6 -2591.5,-278.6 l 304.2,-3955 c 0,-535.4 855.5,-969.5 1910.7,-969.5 274.2,0 534.9,29.4 770.5,82.1 l 96,-1246.9 c 0,-576.4 921,-1043.7 2057,-1043.7 1136.1,0 2057.1,467.3 2057.1,1043.7 0,91.2 -23,179.6 -66.4,263.9"
         style="fill:#864c23;fill-opacity:1;fill-rule:nonzero;stroke:none"
         transform="matrix(0.13333333,0,0,-0.13333333,0,2829.3333)" /><path
         id="path6-5"
         d="m 5213.72,5456.8 921.76,3665.1 C 5108.41,9416.4 4305.84,9806.3 3833.6,10253.8 L 2473.13,4844.3 c -40.23,-78.3 -61.65,-160.5 -61.65,-245.2 0,-535.4 855.47,-969.5 1910.75,-969.5 150.87,0 297.64,8.9 438.43,25.7 l 237.35,943.8 215.71,857.7"
         style="fill:#6c3c1b;fill-opacity:1;fill-rule:nonzero;stroke:none"
         transform="matrix(0.13333333,0,0,-0.13333333,0,2829.3333)" /><path
         id="path7-2"
         d="m 14453,5514.3 -255.3,3318.4 c -791.4,-145.9 -1665.9,-242.6 -2591.5,-278.6 l 304.2,-3955 c 0,-535.4 855.5,-969.5 1910.7,-969.5 274.2,0 534.9,29.4 770.5,82.1 l -68.2,887.4 -70.4,915.2"
         style="fill:#6c3c1b;fill-opacity:1;fill-rule:nonzero;stroke:none"
         transform="matrix(0.13333333,0,0,-0.13333333,0,2829.3333)" /><path
         id="path8-5"
         d="m 10789.2,19384.8 c -3791.44,0 -6864.99,-996.7 -6864.99,-2226.2 0,0 0,0 0,0 0.02,-1229.5 3073.55,-2226.2 6864.99,-2226.2 2200.5,0 4159.3,335.8 5415.6,857.9 908.1,377.5 1449.2,852.4 1449.3,1368.2 v 0.1 c 0,0 0,0 0,0 0,1229.5 -3073.5,2226.2 -6864.9,2226.2"
         style="fill:#f3934e;fill-opacity:1;fill-rule:nonzero;stroke:none"
         transform="matrix(0.13333333,0,0,-0.13333333,0,2829.3333)" /><path
         id="path9-4"
         d="m 10154.1,14129.4 c 73.6,12.6 64.2,121.5 0,139.9 -404.97,115.8 -869.73,79.1 -1289.32,105.3 -446.08,27.7 -889.05,67.2 -1330.95,135.4 -869.64,134.3 -1691.75,376.8 -2528.59,638.4 -60.61,19 -98.98,-71.8 -43.24,-102.5 766.21,-422.4 1676.74,-600.9 2534.97,-715.8 439.21,-58.9 881.13,-105.5 1322.42,-145.6 432.56,-39.3 905.17,-128.6 1334.71,-55.1"
         style="fill:#ffffff;fill-opacity:1;fill-rule:nonzero;stroke:none"
         transform="matrix(0.13333333,0,0,-0.13333333,0,2829.3333)" /><path
         id="path10-7"
         d="m 5402.53,3893 c 2.35,-46.8 72.72,-75.5 95.87,-26 106.29,227.2 158.96,481.3 207.31,732.1 18.73,97.2 36.81,193.8 57.11,288.2 22.06,102.7 44.13,205.3 66.2,308 57.91,269.4 115.83,538.8 173.74,808.2 73.8,343.4 140.72,688.5 202.32,1034.2 58.18,326.5 136.12,660.2 86.02,992 -13.47,89.2 -132.23,65.2 -157.86,0 -125.32,-318.9 -145.32,-677.4 -206.55,-1012.8 -63.42,-347.5 -134.22,-693.4 -196.12,-1041.1 L 5612.77,5314 c -24.7,-138.8 -49.4,-277.5 -74.11,-416.3 -17.44,-98 -38.23,-197.8 -58.3,-298.6 -46.68,-234.3 -89.55,-473.5 -77.83,-706.1"
         style="fill:#ffffff;fill-opacity:1;fill-rule:nonzero;stroke:none"
         transform="matrix(0.13333333,0,0,-0.13333333,0,2829.3333)" /><path
         id="path11-4"
         d="m 17146.3,6899.7 c 89.6,-327.9 180.7,-655.3 273.2,-982.4 88,-311.3 173.2,-624.2 268.2,-933.4 91.1,-296.7 160.7,-662.9 326.1,-926.2 16.9,-26.8 61.4,-16.8 61,16.6 -3.5,298.2 -132.9,620.7 -208.3,908.5 -86.2,328.7 -181.1,655.3 -270,983.3 -84.8,312.4 -168.2,625.2 -250.4,938.4 -83.2,317.3 -143.1,648.5 -286.5,945.1 -27.2,56.2 -121.2,29.3 -117.7,-31.8 18.1,-314.5 121.7,-615.9 204.4,-918.1"
         style="fill:#ffffff;fill-opacity:1;fill-rule:nonzero;stroke:none"
         transform="matrix(0.13333333,0,0,-0.13333333,0,2829.3333)" /><path
         id="path12-4"
         d="m 11306.7,8981.9 c -194.5,52.9 -387.1,16.7 -585.7,10.6 -201.1,-6.1 -402.4,-1 -603.1,13.9 -348.63,25.7 -686.31,97.6 -1026.52,165.9 -89.1,17.9 -178.39,35.5 -268.08,52 -82.03,15.1 -148.57,-103.9 -61.27,-145.3 101.97,-48.3 206.33,-89.9 312.47,-126 306.84,-104.3 628.66,-162.6 951,-203.9 395.8,-50.7 936.4,-148 1307.4,31.9 87.2,42.3 60.3,177.4 -26.2,200.9"
         style="fill:#ffffff;fill-opacity:1;fill-rule:nonzero;stroke:none"
         transform="matrix(0.13333333,0,0,-0.13333333,0,2829.3333)" /><path
         id="path13-3"
         d="m 13896.9,18641.1 c 846.7,-140.9 1642.9,-351.2 2314.2,-916.9 57.2,-48.2 117.4,-53.6 184.2,-23.8 46.1,20.6 55,44.3 69.9,90.9 15.2,47.7 0.1,114.8 -39.1,147.9 -685.7,577.9 -1621.9,986.4 -2529.2,819.2 -57.5,-10.7 -58.6,-107.6 0,-117.3"
         style="fill:#ffffff;fill-opacity:1;fill-rule:nonzero;stroke:none"
         transform="matrix(0.13333333,0,0,-0.13333333,0,2829.3333)" /><path
         id="path14-0"
         d="m 9188.57,16554.2 9.12,-2.1 c 444.97,-110.5 1008.71,-175 1616.01,-171.9 498.9,2.8 965.5,50.5 1359,131.4 142.7,29.2 275.4,62.5 397.4,99.7 457.3,140.1 754.3,332.8 791.2,547.3 2.1,12.5 3.4,25 3.8,37.6 7.7,282.2 -433.2,531.2 -1113.8,678.6 -421,91.2 -932.7,143.4 -1486.3,140.5 -605.9,-3.2 -1157.58,-71.9 -1591.77,-184.3 -605.37,-156.1 -982.73,-396.7 -958.82,-662.1 0.31,-3.4 0.69,-6.9 1.13,-10.3 31.47,-246.7 406.54,-462.8 973.03,-604.4"
         style="fill:#f89f6e;fill-opacity:1;fill-rule:nonzero;stroke:none"
         transform="matrix(0.13333333,0,0,-0.13333333,0,2829.3333)" /></g></g></svg>
