<?xml version="1.0" encoding="UTF-8" standalone="no"?>
<!-- Created with Inkscape (http://www.inkscape.org/) -->

<svg
   version="1.1"
   id="svg1"
   width="30.672363"
   height="38.360977"
   viewBox="0 0 30.672363 38.360977"
   sodipodi:docname="1159066_2774.eps"
   xmlns:inkscape="http://www.inkscape.org/namespaces/inkscape"
   xmlns:sodipodi="http://sodipodi.sourceforge.net/DTD/sodipodi-0.dtd"
   xmlns="http://www.w3.org/2000/svg"
   xmlns:svg="http://www.w3.org/2000/svg">
  <defs
     id="defs1" />
  <sodipodi:namedview
     id="namedview1"
     pagecolor="#505050"
     bordercolor="#eeeeee"
     borderopacity="1"
     inkscape:showpageshadow="0"
     inkscape:pageopacity="0"
     inkscape:pagecheckerboard="0"
     inkscape:deskcolor="#505050">
    <inkscape:page
       x="0"
       y="0"
       width="30.672363"
       height="38.360977"
       id="page2"
       margin="0"
       bleed="0" />
  </sodipodi:namedview>
  <g
     id="g1"
     inkscape:groupmode="layer"
     inkscape:label="1"
     transform="translate(111.43698,-150.81842)">
    <g
       id="g910">
      <path
         id="path806"
         d="m -97.071182,180.78633 c -1.206887,0.30065 -0.113504,0.22429 -1.359538,0.11771 -0.959058,-0.081 -1.316894,0.66148 -2.39183,1.31741 0.72875,0.10837 1.518187,-0.21031 2.299133,-0.23933 0.458605,-0.0183 1.245283,-0.084 1.696319,-0.14227 0.774948,-0.10037 1.65097,0.08 2.352892,-0.14888 -1.158665,-0.46303 -1.682579,-1.13198 -2.596976,-0.90464 z m -0.630856,-13.6802 c 3.015717,2.05579 5.881193,2.17092 8.981439,-0.9248 -4.558328,-2.72823 -6.48602,-2.29665 -8.981439,0.9248 z m -2.293653,0.19152 c -2.994809,-2.76285 -4.966859,-2.86935 -9.009859,0.57691 3.57146,2.53909 6.37723,1.95025 9.009859,-0.57691 z m -0.109029,-15.54724 c 5.234114,-0.4371 10.015593,2.73718 12.317803,7.62359 3.79416,8.05282 -2.647876,18.65557 -4.928687,26.8574 -0.470122,1.68901 -1.530643,2.59029 -4.002845,2.87586 -2.614209,0.30246 -4.107741,-0.32408 -5.036451,-2.30093 -3.47966,-7.41542 -11.41666,-16.78178 -9.34116,-25.08436 1.35099,-5.40374 5.62111,-9.52302 10.99134,-9.97156 v 0"
         style="fill:#79161a;fill-opacity:1;fill-rule:evenodd;stroke:none;stroke-width:0.133333" />
      <path
         id="path807"
         d="m -100.33913,172.63602 c -1.58496,2.02465 -3.03885,4.35445 -4.13832,6.61412 0.62164,1.06159 1.23328,2.10107 1.79512,3.11222 0.41052,-1.25548 1.22053,-2.45315 1.7058,-3.53465 0.14275,-1.75605 0.42455,-4.13424 0.6374,-6.19169 z m 0.27587,-3.43166 c -0.0169,0.72719 -0.11063,1.80253 -0.23318,3.017 -2.12436,1.69173 -4.99986,2.1058 -7.16874,1.62715 -0.6249,-1.26548 -1.17679,-2.54117 -1.59947,-3.81468 4.04124,2.11678 7.20082,0.65027 9.00139,-0.82947 v 0"
         style="fill:#f9d80d;fill-opacity:1;fill-rule:evenodd;stroke:none;stroke-width:0.133333" />
      <path
         id="path808"
         d="m -98.875205,166.87055 c 0.715585,3.92632 1.331998,5.28246 2.166562,8.33056 0.525121,1.91884 1.007147,1.58648 -0.17311,2.58755 -1.297913,1.10096 -0.741481,1.04816 -2.207712,0.17514 -1.373525,-0.81736 -0.76652,-0.70464 -0.58157,-2.57595 0.312367,-3.14742 0.664917,-5.12167 0.734825,-8.5123 l 0.06098,-0.005"
         style="fill:#efa245;fill-opacity:1;fill-rule:evenodd;stroke:none;stroke-width:0.133333" />
      <path
         id="path809"
         d="m -97.071182,180.78633 c -1.206887,0.30065 -0.113504,0.22429 -1.359538,0.11771 -0.959058,-0.081 -1.316894,0.66148 -2.39183,1.31741 0.72875,0.10837 1.518187,-0.21031 2.299133,-0.23933 0.458605,-0.0183 1.245283,-0.084 1.696319,-0.14227 0.774948,-0.10037 1.65097,0.08 2.352892,-0.14888 -1.158665,-0.46303 -1.682579,-1.13198 -2.596976,-0.90464 z m -0.405691,-0.63141 c 0.27002,-0.25132 0.612749,-0.44923 0.840022,-0.47035 0.962125,-0.0878 2.030776,1.3956 3.330361,1.93748 -0.849311,0.4635 -1.528344,1.49521 -2.341301,1.9069 -0.0682,0.0348 -3.640012,0.33249 -3.712987,0.30987 -0.869602,-0.27116 -1.709992,-1.17587 -2.625462,-1.49176 1.19215,-0.75076 1.999905,-2.39052 2.963116,-2.46267 0.225309,-0.0175 0.588636,0.11789 0.895192,0.31699 0.430156,0.27816 0.292045,0.28782 0.651059,-0.0465 v 0"
         style="fill:#ed1d24;fill-opacity:1;fill-rule:evenodd;stroke:none;stroke-width:0.133333" />
      <path
         id="path810"
         d="m -96.477891,172.31328 c 1.920565,1.75436 3.760382,3.83675 5.226461,5.90546 -0.437921,1.15135 -0.870315,2.2823 -1.259581,3.3824 -0.608494,-1.20449 -1.638295,-2.27726 -2.311924,-3.28707 -0.431327,-1.7088 -1.103617,-4.0063 -1.654956,-6.00079 z m -0.84007,-3.33806 c 0.13708,0.71426 0.406683,1.75878 0.729489,2.93705 2.408705,1.33465 5.361635,1.24494 7.425536,0.3803 -0.428173,1.43066 -0.937738,2.86371 -1.464886,4.27665 1.028762,-2.75666 1.992529,-5.58873 2.402177,-8.3293 -3.665185,2.83204 -7.057836,1.90432 -9.092316,0.7353 v 0"
         style="fill:#f9d80d;fill-opacity:1;fill-rule:evenodd;stroke:none;stroke-width:0.133333" />
      <path
         id="path811"
         d="m -99.93071,151.57725 c 11.884693,-3.29744 16.355458,4.70907 19.16609,13.26598 l -1.823545,2.9827 c -2.833203,-9.68255 -6.620568,-17.2379 -17.342545,-16.24868"
         style="fill:#ed1d24;fill-opacity:1;fill-rule:evenodd;stroke:none;stroke-width:0.133333" />
      <path
         id="path812"
         d="m -97.302609,151.8501 c 11.117205,1.32846 13.428769,11.78829 13.064741,20.77336 l -2.499001,2.09533 c 0.704948,-10.03729 -1.172677,-19.82651 -10.56574,-22.86869"
         style="fill:#ed1d24;fill-opacity:1;fill-rule:evenodd;stroke:none;stroke-width:0.133333" />
      <path
         id="path813"
         d="m -97.702038,167.10613 c 3.015717,2.05579 5.881193,2.17092 8.981439,-0.9248 -4.558328,-2.72823 -6.48602,-2.29665 -8.981439,0.9248 z m -2.402682,-15.35572 c 5.234114,-0.4371 10.015593,2.73718 12.317423,7.62323 3.79454,8.05318 -2.647496,18.65593 -4.928307,26.85776 -0.470122,1.68901 -1.530643,2.59029 -4.002845,2.87586 -0.112473,0.0135 -0.223086,0.025 -0.330989,0.0336 l -0.456532,-5.46589 c 0.976017,-0.89633 0.475107,-0.6711 1.555193,-0.81103 0.774941,-0.10036 0.774652,-0.94409 1.475812,-1.17373 -1.158286,-0.46267 -1.29992,-1.69967 -2.214696,-1.47269 -0.511973,0.12726 -0.552441,0.16061 -1.087612,0.20593 l -0.155031,-1.85933 0.856449,-1.65447 -1.827544,-9.98154 -0.617728,-7.39488 0.831979,-0.53265 -0.923495,-0.56803 -0.0388,-0.46716 0.53618,-1.15803 -0.732601,-1.1946 -0.0587,-0.70119 1.139923,-0.36693 -1.222846,-0.62712 -0.180863,-2.16099 0.0656,-0.006 v 0"
         style="fill:#5f1415;fill-opacity:1;fill-rule:evenodd;stroke:none;stroke-width:0.133333" />
      <path
         id="path814"
         d="m -98.875205,166.87055 c 0.715585,3.92632 1.331998,5.28246 2.166562,8.33056 0.525121,1.91884 1.007147,1.58648 -0.17311,2.58755 -0.655185,0.55561 -0.838328,0.81699 -1.046622,0.82847 l -0.979574,-11.74435 0.03275,-0.002"
         style="fill:#df9741;fill-opacity:1;fill-rule:evenodd;stroke:none;stroke-width:0.133333" />
      <path
         id="path815"
         d="m -97.476873,180.15492 c 0.27002,-0.25132 0.612749,-0.44923 0.840022,-0.47035 0.962125,-0.0878 2.030776,1.3956 3.330361,1.93748 -0.848931,0.46386 -1.528344,1.49521 -2.341301,1.9069 -0.03411,0.0174 -0.944719,0.10041 -1.855102,0.17632 l -0.14886,-1.78052 c 0.302646,-0.0255 0.604078,-0.0557 0.824655,-0.0849 0.774948,-0.10037 1.65097,0.08 2.352133,-0.1496 -1.158286,-0.46267 -1.68182,-1.13126 -2.596217,-0.90392 -0.560518,0.14028 -0.625042,0.19859 -0.657785,0.20996 l -0.04939,-0.58843 c 0.065,-0.003 0.119141,-0.0839 0.301485,-0.25294"
         style="fill:#dc1e25;fill-opacity:1;fill-rule:evenodd;stroke:none;stroke-width:0.133333" />
      <path
         id="path816"
         d="m -96.477891,172.31328 c 1.920565,1.75436 3.760382,3.83675 5.226461,5.90546 -0.437921,1.15135 -0.870315,2.2823 -1.259581,3.3824 -0.608494,-1.20449 -1.638295,-2.27726 -2.311924,-3.28707 -0.431327,-1.7088 -1.103617,-4.0063 -1.654956,-6.00079 z m -0.84007,-3.33806 c 0.13708,0.71426 0.406683,1.75878 0.729109,2.93669 2.408705,1.33465 5.362015,1.2453 7.425916,0.38066 -0.427264,1.42969 -0.937738,2.86371 -1.464886,4.27665 1.028762,-2.75666 1.992529,-5.58873 2.402177,-8.3293 -3.665185,2.83204 -7.057836,1.90432 -9.092316,0.7353 v 0"
         style="fill:#f7b80c;fill-opacity:1;fill-rule:evenodd;stroke:none;stroke-width:0.133333" />
      <path
         id="path817"
         d="m -99.93071,151.57725 c 11.884693,-3.29744 16.355458,4.70907 19.16609,13.26598 l -1.823545,2.9827 c -2.833203,-9.68255 -6.621327,-17.23861 -17.342545,-16.24868"
         style="fill:#dc1e25;fill-opacity:1;fill-rule:evenodd;stroke:none;stroke-width:0.133333" />
      <path
         id="path818"
         d="m -97.302609,151.8501 c 11.117205,1.32846 13.42786,11.78926 13.064741,20.77336 l -2.498621,2.09569 c 0.704568,-10.03765 -1.173057,-19.82687 -10.56612,-22.86905"
         style="fill:#dc1e25;fill-opacity:1;fill-rule:evenodd;stroke:none;stroke-width:0.133333" />
    </g>
  </g>
</svg>
