<?xml version="1.0" encoding="UTF-8" standalone="no"?>
<!-- Created with Inkscape (http://www.inkscape.org/) -->

<svg
   version="1.1"
   id="svg1"
   width="70.214661"
   height="41.095886"
   viewBox="0 0 70.214659 41.095885"
   sodipodi:docname="1159066_2774.eps"
   xml:space="preserve"
   xmlns:inkscape="http://www.inkscape.org/namespaces/inkscape"
   xmlns:sodipodi="http://sodipodi.sourceforge.net/DTD/sodipodi-0.dtd"
   xmlns="http://www.w3.org/2000/svg"
   xmlns:svg="http://www.w3.org/2000/svg"><defs
     id="defs1" /><sodipodi:namedview
     id="namedview1"
     pagecolor="#505050"
     bordercolor="#eeeeee"
     borderopacity="1"
     inkscape:showpageshadow="0"
     inkscape:pageopacity="0"
     inkscape:pagecheckerboard="0"
     inkscape:deskcolor="#505050"><inkscape:page
       x="0"
       y="0"
       width="70.214661"
       height="41.095886"
       id="page2"
       margin="0"
       bleed="0" /></sodipodi:namedview><g
     id="g1"
     inkscape:groupmode="layer"
     inkscape:label="1"
     transform="translate(-545.02656,-458.57839)"><g
       id="g912"><path
         id="path25"
         d="m 615.24121,458.57837 c -6.05467,25.99213 -20.22134,40.12387 -34.35734,41.064 -12.21466,0.812 -31.38666,-13.9052 -35.85733,-41.064 7.656,1.90773 23.548,3.64787 35.56133,3.50933 11.86,-0.14013 24.86,-1.20266 34.65334,-3.50933"
         style="fill:#ed1d24;fill-opacity:1;fill-rule:evenodd;stroke:none;stroke-width:0.133333" /><path
         id="path26"
         d="m 611.81454,469.94757 c -9.28133,1.80267 -20.70133,2.65467 -31.22667,2.7776 -10.65333,0.12507 -24.35866,-1.23227 -32.66399,-2.8708 -1.02534,-2.86827 -1.87867,-5.93173 -2.51867,-9.18387 7.75333,1.88227 23.41733,3.58227 35.288,3.4412 11.604,-0.1344 24.3,-1.15733 34.016,-3.36 -0.83867,3.26414 -1.80934,6.3308 -2.89467,9.19587"
         style="fill:#79161a;fill-opacity:1;fill-rule:evenodd;stroke:none;stroke-width:0.133333" /><path
         id="path27"
         d="m 573.51721,472.26477 4.24666,-8.15467 c 0.99734,0.0125 1.97734,0.0136 2.92934,0.002 0.59733,-0.005 1.196,-0.0147 1.796,-0.0267 l 4.26133,8.17973 0.15733,0.3 c -0.84666,0.0333 -1.69333,0.0615 -2.536,0.0855 l -4.23866,-8.13334 -4.26,8.17494 c -0.836,-0.0203 -1.684,-0.0468 -2.53734,-0.0817 l 0.18134,-0.34533"
         style="fill:#f25b19;fill-opacity:1;fill-rule:evenodd;stroke:none;stroke-width:0.133333" /><path
         id="path28"
         d="m 586.20787,472.26477 4.42,-8.48227 c 1.42,-0.0776 2.83867,-0.1708 4.25067,-0.2776 l 4.29067,8.23227 c -0.816,0.0797 -1.63867,0.15573 -2.464,0.22507 l -3.88,-7.44534 -4.15467,7.97347 c -0.88,0.0411 -1.76133,0.076 -2.63733,0.10773 l 0.17466,-0.33333"
         style="fill:#f25b19;fill-opacity:1;fill-rule:evenodd;stroke:none;stroke-width:0.133333" /><path
         id="path29"
         d="m 561.10387,471.73037 4.28667,-8.22653 c 1.416,0.1156 2.84267,0.2188 4.264,0.3036 l 4.40667,8.45733 0.19733,0.38027 c -0.872,-0.0308 -1.752,-0.0677 -2.63733,-0.1104 l -4.17734,-8.01774 -3.884,7.45107 c -0.82533,-0.0751 -1.64533,-0.15373 -2.456,-0.2376"
         style="fill:#f25b19;fill-opacity:1;fill-rule:evenodd;stroke:none;stroke-width:0.133333" /><path
         id="path30"
         d="m 549.37321,470.12784 4.768,-7.8656 c 1.068,0.15093 2.17466,0.29626 3.31066,0.43586 l 4.83067,7.96827 0.512,0.84267 -0.22133,0.36826 c -0.81867,-0.0792 -1.63067,-0.16146 -2.43334,-0.24693 l 0.0733,-0.12133 -4.54934,-7.50254 -3.95066,6.5172 c -0.812,-0.1292 -1.59333,-0.26146 -2.34,-0.39586"
         style="fill:#f25b19;fill-opacity:1;fill-rule:evenodd;stroke:none;stroke-width:0.133333" /><path
         id="path31"
         d="m 597.81321,470.66637 4.57333,-7.87707 c 1.10933,-0.12973 2.20533,-0.27093 3.28533,-0.42133 l 4.57067,7.8728 c -0.73867,0.1324 -1.48933,0.25893 -2.25067,0.37867 l -3.84,-6.61294 -4.35733,7.50254 0.0893,0.15573 c -0.776,0.0792 -1.55733,0.15467 -2.34133,0.22453 l -0.22133,-0.38026 0.492,-0.84267"
         style="fill:#f25b19;fill-opacity:1;fill-rule:evenodd;stroke:none;stroke-width:0.133333" /><path
         id="path32"
         d="m 609.33321,470.3997 c 1.12266,-3.07706 2.06933,-5.99586 3.05066,-9.15466 0.75867,-0.15054 1.50267,-0.30787 2.22934,-0.47187 -0.88934,3.47853 -1.668,5.9172 -2.83067,9.1812 -0.80267,0.15573 -1.61867,0.30413 -2.44933,0.44533"
         style="fill:#f25b19;fill-opacity:1;fill-rule:evenodd;stroke:none;stroke-width:0.133333" /><path
         id="path33"
         d="m 550.19588,470.27317 c -1,-3.07187 -1.83067,-5.98387 -2.68534,-9.136 -0.74933,-0.15213 -1.44933,-0.3068 -2.096,-0.464 0.74934,3.3796 1.44934,5.81613 2.528,9.18533 0.71334,0.1412 1.46534,0.27867 2.25334,0.41467"
         style="fill:#f25b19;fill-opacity:1;fill-rule:evenodd;stroke:none;stroke-width:0.133333" /><path
         id="path34"
         d="m 580.13321,480.15597 c 1.31466,0 2.38666,-1.0724 2.38666,-2.38707 0,-1.31453 -1.072,-2.38533 -2.38666,-2.38533 -1.31334,0 -2.38534,1.0708 -2.38534,2.38533 0,1.31467 1.072,2.38707 2.38534,2.38707"
         style="fill:#f9d80d;fill-opacity:1;fill-rule:evenodd;stroke:none;stroke-width:0.133333" /><path
         id="path35"
         d="m 569.69321,479.81837 c 1.31466,0 2.38533,-1.07187 2.38533,-2.38533 0,-1.31467 -1.07067,-2.38654 -2.38533,-2.38654 -1.31467,0 -2.38667,1.07187 -2.38667,2.38654 0,1.31346 1.072,2.38533 2.38667,2.38533"
         style="fill:#f9d80d;fill-opacity:1;fill-rule:evenodd;stroke:none;stroke-width:0.133333" /><path
         id="path36"
         d="m 559.65987,478.80904 c 1.31334,0 2.38667,-1.0708 2.38667,-2.38534 0,-1.3136 -1.07333,-2.38653 -2.38667,-2.38653 -1.31466,0 -2.38533,1.07293 -2.38533,2.38653 0,1.31454 1.07067,2.38534 2.38533,2.38534"
         style="fill:#f9d80d;fill-opacity:1;fill-rule:evenodd;stroke:none;stroke-width:0.133333" /><path
         id="path37"
         d="m 590.80521,479.81837 c 1.31466,0 2.38666,-1.07187 2.38666,-2.38533 0,-1.31467 -1.072,-2.38654 -2.38666,-2.38654 -1.31334,0 -2.38534,1.07187 -2.38534,2.38654 0,1.31346 1.072,2.38533 2.38534,2.38533"
         style="fill:#f9d80d;fill-opacity:1;fill-rule:evenodd;stroke:none;stroke-width:0.133333" /><path
         id="path38"
         d="m 600.81854,478.80904 c 1.31467,0 2.38667,-1.0708 2.38667,-2.38534 0,-1.3136 -1.072,-2.38653 -2.38667,-2.38653 -1.31333,0 -2.38533,1.07293 -2.38533,2.38653 0,1.31454 1.072,2.38534 2.38533,2.38534"
         style="fill:#f9d80d;fill-opacity:1;fill-rule:evenodd;stroke:none;stroke-width:0.133333" /><path
         id="path39"
         d="m 615.24121,458.57837 c -6.056,25.99213 -20.22134,40.12387 -34.35734,41.064 -0.22933,0.0161 -0.46266,0.024 -0.69733,0.0265 v -19.5692 l 1.624,-1.44693 -1.624,-3.2104 v -2.89213 l 6.704,-3.6 -6.704,-4.86774 v -1.99066 l 0.40133,-0.004 c 11.86,-0.14013 24.86134,-1.20266 34.65334,-3.50933"
         style="fill:#dc1e25;fill-opacity:1;fill-rule:evenodd;stroke:none;stroke-width:0.133333" /><path
         id="path40"
         d="m 611.81454,469.94757 c -9.28133,1.80267 -20.70133,2.65467 -31.22667,2.7776 l -0.40133,0.004 v -8.612 l 0.50667,-0.005 c 11.604,-0.1344 24.3,-1.15733 34.016,-3.36 -0.83867,3.26414 -1.80934,6.3308 -2.89467,9.19587"
         style="fill:#79161a;fill-opacity:1;fill-rule:evenodd;stroke:none;stroke-width:0.133333" /><path
         id="path41"
         d="m 580.18654,464.1169 0.50667,-0.005 c 0.59733,-0.005 1.196,-0.0147 1.796,-0.0267 l 4.26133,8.17973 0.15733,0.3 c -0.84666,0.0333 -1.69333,0.0615 -2.536,0.0855 l -4.18533,-8.0308 v -0.50254"
         style="fill:#eb551c;fill-opacity:1;fill-rule:evenodd;stroke:none;stroke-width:0.133333" /><path
         id="path42"
         d="m 586.20787,472.26477 4.42,-8.48227 c 1.42,-0.0776 2.83867,-0.1708 4.25067,-0.2776 l 4.29067,8.23227 c -0.816,0.0797 -1.63867,0.15573 -2.464,0.22507 l -3.88,-7.44534 -4.15467,7.97347 c -0.88,0.0411 -1.76133,0.076 -2.63733,0.10773 l 0.17466,-0.33333"
         style="fill:#eb551c;fill-opacity:1;fill-rule:evenodd;stroke:none;stroke-width:0.133333" /><path
         id="path43"
         d="m 597.81321,470.66637 4.57333,-7.87707 c 1.10933,-0.12973 2.20533,-0.27093 3.28533,-0.42133 l 4.57067,7.8728 c -0.73867,0.1324 -1.48933,0.25893 -2.25067,0.37867 l -3.84,-6.61294 -4.35733,7.50254 0.0893,0.15573 c -0.776,0.0792 -1.55733,0.15467 -2.34133,0.22453 l -0.22133,-0.38026 0.492,-0.84267"
         style="fill:#eb551c;fill-opacity:1;fill-rule:evenodd;stroke:none;stroke-width:0.133333" /><path
         id="path44"
         d="m 609.33321,470.3997 c 1.12266,-3.07706 2.06933,-5.99586 3.05066,-9.15466 0.75867,-0.15054 1.50267,-0.30787 2.22934,-0.47187 -0.88934,3.47853 -1.668,5.9172 -2.83067,9.1812 -0.80267,0.15573 -1.61867,0.30413 -2.44933,0.44533"
         style="fill:#eb551c;fill-opacity:1;fill-rule:evenodd;stroke:none;stroke-width:0.133333" /><path
         id="path45"
         d="m 580.18654,475.38504 c 1.29467,0.0281 2.33333,1.08386 2.33333,2.38386 0,1.3 -1.03866,2.35627 -2.33333,2.38547 v -4.76933"
         style="fill:#f7b80c;fill-opacity:1;fill-rule:evenodd;stroke:none;stroke-width:0.133333" /><path
         id="path46"
         d="m 590.80521,475.0465 c 1.31866,0 2.38666,1.06774 2.38666,2.38654 0,1.3172 -1.068,2.3864 -2.38666,2.3864 -1.31734,0 -2.38534,-1.0692 -2.38534,-2.3864 0,-1.3188 1.068,-2.38654 2.38534,-2.38654"
         style="fill:#f7b80c;fill-opacity:1;fill-rule:evenodd;stroke:none;stroke-width:0.133333" /><path
         id="path47"
         d="m 600.81854,474.03824 c 1.31733,0 2.38667,1.06826 2.38667,2.38546 0,1.31707 -1.06934,2.38694 -2.38667,2.38694 -1.316,0 -2.38533,-1.06987 -2.38533,-2.38694 0,-1.3172 1.06933,-2.38546 2.38533,-2.38546"
         style="fill:#f7b80c;fill-opacity:1;fill-rule:evenodd;stroke:none;stroke-width:0.133333" /></g></g></svg>
