<?xml version="1.0" encoding="UTF-8" standalone="no"?>
<!-- Created with Inkscape (http://www.inkscape.org/) -->

<svg
   version="1.1"
   id="svg1"
   width="32.453644"
   height="57.848724"
   viewBox="0 0 32.453644 57.848724"
   sodipodi:docname="1159066_2774.eps"
   xmlns:inkscape="http://www.inkscape.org/namespaces/inkscape"
   xmlns:sodipodi="http://sodipodi.sourceforge.net/DTD/sodipodi-0.dtd"
   xmlns="http://www.w3.org/2000/svg"
   xmlns:svg="http://www.w3.org/2000/svg">
  <defs
     id="defs1" />
  <sodipodi:namedview
     id="namedview1"
     pagecolor="#505050"
     bordercolor="#eeeeee"
     borderopacity="1"
     inkscape:showpageshadow="0"
     inkscape:pageopacity="0"
     inkscape:pagecheckerboard="0"
     inkscape:deskcolor="#505050">
    <inkscape:page
       x="0"
       y="0"
       width="32.453644"
       height="57.848724"
       id="page2"
       margin="0"
       bleed="0" />
  </sodipodi:namedview>
  <g
     id="g1"
     inkscape:groupmode="layer"
     inkscape:label="1"
     transform="translate(-400.53997,-453.06675)">
    <g
       id="g909"
       transform="rotate(-42.238813,414.38624,480.67167)">
      <path
         id="path2"
         d="m 436.08666,466.04496 c 1.40133,1.9776 5.08533,7.78013 4.53866,11.36253 -0.116,0.7588 0.364,1.80574 -0.284,2.264 l -21.07466,14.93335 -0.0413,0.0297 -0.028,0.012 c -0.0453,0.0239 -0.092,0.0463 -0.14266,0.0625 l -21.95467,9.54636 c -0.0187,0.0151 -0.0387,0.0307 -0.0573,0.0458 -1.05734,0.74896 -4.152,-1.8 -6.91067,-5.69375 -2.75867,-3.89427 -4.13733,-7.65729 -3.08,-8.40621 0.0187,-0.0136 0.04,-0.0271 0.06,-0.0391 l 16.28533,-17.54893 c 0.0333,-0.0417 0.068,-0.0787 0.10667,-0.1152 l 0.0213,-0.0213 0.0413,-0.0292 21.05733,-14.92133 c 0.528,-0.37347 1.496,0.45373 2.096,0.48387 3.64533,0.18693 7.892,5.9536 9.36667,8.03493"
         style="fill:#efa245;fill-opacity:1;fill-rule:evenodd;stroke:none;stroke-width:0.133333" />
      <path
         id="path3"
         d="m 419.22532,494.63452 -0.028,0.012 c -0.0453,0.025 -0.092,0.0463 -0.14266,0.0625 l -8.12134,3.53073 c -6.87866,-1.79218 -13.63733,-12.58384 -13.332,-19.37864 l 5.796,-6.24786 c 0.0333,-0.0417 0.068,-0.0803 0.10667,-0.1152 l 0.0213,-0.0213 c -2.652,4.8776 11.592,23.30679 15.7,22.15783"
         style="fill:#79161a;fill-opacity:1;fill-rule:evenodd;stroke:none;stroke-width:0.133333" />
      <path
         id="path4"
         d="m 420.32532,493.85588 -1.27866,0.9026 c -4.66667,1.39584 -18.532,-18.17765 -15.51867,-22.28019 l 1.42,-1.0104 c -2.72667,4.31294 9.29067,22.71715 15.37733,22.38799"
         style="fill:#f9d80d;fill-opacity:1;fill-rule:evenodd;stroke:none;stroke-width:0.133333" />
      <path
         id="path5"
         d="m 437.11866,465.31416 c 3.156,4.45373 5.06,8.78813 4.95333,10.93333 -0.424,1.6188 -1.28267,3.15894 -1.516,3.25734 -4.82267,2.04266 -19.25867,-19.5948 -15.86667,-21.99734 0.276,-0.19426 3.108,-0.6428 3.556,-0.54386 2.03067,0.45053 5.61334,3.7496 8.87334,8.35053"
         style="fill:#efa245;fill-opacity:1;fill-rule:evenodd;stroke:none;stroke-width:0.133333" />
      <path
         id="path6"
         d="m 441.69732,477.35843 c -5.02933,-0.0905 -16.816,-16.09734 -14.548,-20.2588 0.276,-0.19587 0.65067,-0.23494 1.1,-0.13494 -3.824,0.99227 7.76267,18.9792 13.60534,19.81774 0.10933,0.0369 -0.084,0.25733 -0.15734,0.576"
         style="fill:#79161a;fill-opacity:1;fill-rule:evenodd;stroke:none;stroke-width:0.133333" />
      <path
         id="path7"
         d="m 440.56532,479.41936 c -0.076,0.11627 -0.168,0.2136 -0.276,0.2896 -1.66133,1.17707 -6.52266,-2.82907 -10.85866,-8.9468 -4.33467,-6.1188 -6.50267,-12.03333 -4.84134,-13.212 0.108,-0.076 0.22934,-0.1292 0.364,-0.16413 -1.09466,1.65893 1.02667,7.22813 5.08,12.94853 4.05334,5.72133 8.604,9.56773 10.532,9.0848"
         style="fill:#79161a;fill-opacity:1;fill-rule:evenodd;stroke:none;stroke-width:0.133333" />
      <path
         id="path8"
         d="m 412.31599,497.76785 -1.45333,0.65418 c -4.296,1.67238 -16.27334,-15.34214 -13.50534,-19.436 l 1.26934,-1.2224 c -3.22,4.3548 7.53066,20.89589 13.68933,20.00422"
         style="fill:#f9d80d;fill-opacity:1;fill-rule:evenodd;stroke:none;stroke-width:0.133333" />
      <path
         id="path9"
         d="m 397.36932,479.34496 6.688,-1.85733 0.73067,-0.20414 -0.38267,0.65467 -4.484,7.69747 8.87467,-0.36774 0.49333,-0.0188 -0.19866,0.45214 -3.53067,7.9984 8.66933,-1.74115 0.748,-0.15104 -0.43333,0.62708 -3.89867,5.64532 -0.50666,-0.35209 3.468,-5.01771 -8.50534,1.70833 -0.58133,0.11719 0.23867,-0.54375 3.56933,-8.08805 -8.944,0.36773 -0.56133,0.0255 0.284,-0.48693 4.38666,-7.5292 -5.95866,1.6548 -0.16534,-0.59067"
         style="fill:#f9d80d;fill-opacity:1;fill-rule:evenodd;stroke:none;stroke-width:0.133333" />
      <path
         id="path10"
         d="m 436.08799,466.04496 c 1.40133,1.9776 5.084,7.78013 4.53733,11.36253 -0.116,0.7588 0.364,1.80574 -0.28266,2.26294 l -21.076,14.93441 -0.0413,0.0281 -0.028,0.0136 c -0.044,0.0239 -0.092,0.0463 -0.14266,0.0625 l -21.95467,9.54636 c -0.0187,0.0151 -0.0387,0.0307 -0.0573,0.0458 -1.05734,0.74896 -4.152,-1.8 -6.91067,-5.69375 l 45.956,-32.56248"
         style="fill:#df9741;fill-opacity:1;fill-rule:evenodd;stroke:none;stroke-width:0.133333" />
      <path
         id="path11"
         d="m 419.22532,494.63296 -0.028,0.0136 c -0.044,0.0239 -0.092,0.0463 -0.14266,0.0625 l -8.12134,3.53073 c -3.42533,-0.89218 -6.81866,-4.01354 -9.32533,-7.76304 l 7.00933,-4.96666 c 3.78267,5.20314 8.51334,9.70938 10.608,9.12293"
         style="fill:#5f1415;fill-opacity:1;fill-rule:evenodd;stroke:none;stroke-width:0.133333" />
      <path
         id="path12"
         d="m 420.32532,493.85588 -1.27733,0.9026 c -2.336,0.6974 -6.976,-3.85469 -10.65067,-9.09379 l 1.21067,-0.85573 c 3.38933,4.9292 7.75467,9.20785 10.71733,9.04692"
         style="fill:#d8c111;fill-opacity:1;fill-rule:evenodd;stroke:none;stroke-width:0.133333" />
      <path
         id="path13"
         d="m 437.11866,465.31576 c 3.156,4.45213 5.06,8.78653 4.95333,10.93173 -0.424,1.6188 -1.28267,3.15894 -1.516,3.25734 -2.36,1 -7.02533,-3.676 -10.77467,-8.9916 l 7.33734,-5.19747"
         style="fill:#df9741;fill-opacity:1;fill-rule:evenodd;stroke:none;stroke-width:0.133333" />
      <path
         id="path14"
         d="m 441.69732,477.35843 c -2.46533,-0.0443 -6.552,-3.91187 -9.81333,-8.3348 l 0.67067,-0.47454 c 3.00133,4.1308 6.71333,7.86254 9.3,8.23334 0.10933,0.036 -0.0827,0.25733 -0.15734,0.576"
         style="fill:#5f1415;fill-opacity:1;fill-rule:evenodd;stroke:none;stroke-width:0.133333" />
      <path
         id="path15"
         d="m 440.56532,479.41936 c -0.076,0.11627 -0.168,0.2136 -0.276,0.2896 -1.66133,1.17707 -6.52266,-2.82907 -10.85733,-8.9468 l 0.60133,-0.42653 c 4.05334,5.72026 8.604,9.56666 10.532,9.08373"
         style="fill:#5f1415;fill-opacity:1;fill-rule:evenodd;stroke:none;stroke-width:0.133333" />
      <path
         id="path16"
         d="m 412.31732,497.76785 -1.45466,0.65418 c -2.17867,0.84686 -6.32934,-3.10782 -9.53334,-7.74792 l 0.85334,-0.60515 c 3.036,4.42285 7.13066,8.13483 10.13466,7.69889"
         style="fill:#d8c111;fill-opacity:1;fill-rule:evenodd;stroke:none;stroke-width:0.133333" />
      <path
         id="path17"
         d="m 408.96799,485.26216 0.32133,-0.0131 -0.19866,0.45214 -3.53067,7.9984 8.66933,-1.74115 0.748,-0.15104 -0.43333,0.62708 -3.89867,5.64532 -0.50666,-0.35209 3.468,-5.01771 -8.50534,1.70833 -0.58133,0.11719 0.23867,-0.54375 3.56933,-8.08805 -0.28267,0.012 0.92267,-0.6536"
         style="fill:#d8c111;fill-opacity:1;fill-rule:evenodd;stroke:none;stroke-width:0.133333" />
    </g>
  </g>
</svg>
